<svg height="31" viewBox="0 0 136 31" width="136" xmlns="http://www.w3.org/2000/svg"><g fill="none" fill-rule="evenodd"><g fill="#1e1f1d"><path d="m37.5620082 23.8715111v-16.49326758h4.1232744v2.16144273h.5985499c.2660725-.57616942.7647886-1.12485903 1.4963747-1.64601218.7315862-.52058655 1.8397874-.78144642 3.3252835-.78144642 1.2853751 0 2.410744.29411893 3.375087.88122362.9642863.58767128 1.7124737 1.39665417 2.2445054 2.42745863.5320884 1.0308044.7981043 2.2335701.7981043 3.6078438v9.8427574h-4.1897925v-9.5102234c0-1.2411807-.3049976-2.1723213-.9144827-2.793195-.6099951-.6203637-1.4797169-.9310272-2.6102985-.9310272-1.2859417 0-2.2835437.4270419-2.9926928 1.2801624-.7097723.8536872-1.0641201 2.0450644-1.0641201 3.5746415v8.3796417z"/><path d="m64.3560111 20.6127458c1.2856018 0 2.3496653-.4156533 3.1921905-1.24696.8425253-.8313067 1.2635046-2.0226839 1.2635046-3.5746415v-.332534c0-1.5514476-.4153134-2.7432781-1.2465068-3.5745848-.8317599-.8313633-1.9014894-1.24696-3.2091883-1.24696-1.2856017 0-2.3496652.4155967-3.1921905 1.24696-.8425253.8313067-1.2635046 2.0231372-1.2635046 3.5745848v.332534c0 1.5519576.4209793 2.7433348 1.2635046 3.5746415s1.9065888 1.24696 3.1921905 1.24696zm0 3.7242789c-1.6408562 0-3.1145671-.3324773-4.422266-.9975453-1.3082656-.6650681-2.3394666-1.6293544-3.09247-2.8929723-.7540799-1.2636179-1.1307516-2.7817498-1.1307516-4.5556422v-.5319751c0-1.7733259.3766717-3.2920244 1.1307516-4.5555856.7530034-1.26361795 1.7842044-2.22796091 3.09247-2.89297227 1.3076989-.66501136 2.7814098-.99760203 4.422266-.99760203 1.6402896 0 3.1145671.33259067 4.4228326.99760203 1.307699.66501136 2.3383334 1.62935432 3.09247 2.89297227.7530034 1.2635612 1.130355 2.7822597 1.130355 4.5555856v.5319751c0 1.7738924-.3773516 3.2920243-1.130355 4.5556422-.7541366 1.2636179-1.784771 2.2279042-3.09247 2.8929723-1.3082655.665068-2.782543.9975453-4.4228326.9975453z"/><path d="m75.1892881 23.8715111v-16.49326758h4.1231044v1.86216779h.5983233c.244202-.66506802.672547-1.11245063 1.2380078-1.42317077.5654608-.31015355 1.2006127-.43899702 1.9547493-.43899702h1.9949774v3.45826308h-2.0618355c-1.211378.0270832-1.9400178.4821714-2.6267297 1.0475189-.6872785.5652342-1.0312011 1.4355792-1.0312011 2.6102985v9.3771871z"/><path d="m90.9870616 23.8715111c-1.0861607 0-1.967781-.3377467-2.6437276-1.0142032-.6765132-.6760033-1.0142032-1.5794374-1.0142032-2.7101324v-9.3106689h-4.1231044v-3.45826308h4.1231044v-5.12087643h4.1899625v5.12087643h4.5225532v3.45826308h-4.5225532v8.5791961c0 .665068.3104935.9974887.9309139.9974887h3.1921905v3.4583197z"/><path d="m105.411411 20.6127458c1.285602 0 2.349665-.4156533 3.192191-1.24696.842525-.8313067 1.263504-2.0226839 1.263504-3.5746415v-.332534c0-1.5514476-.415313-2.7432781-1.246506-3.5745848-.83176-.8313633-1.90149-1.24696-3.209189-1.24696-1.285602 0-2.349665.4155967-3.19219 1.24696-.842526.8313067-1.263505 2.0231372-1.263505 3.5745848v.332534c0 1.5519576.420979 2.7433348 1.263505 3.5746415.842525.8313067 1.906588 1.24696 3.19219 1.24696zm0 3.7242789c-1.640856 0-3.114567-.3324773-4.422266-.9975453-1.3082654-.6650681-2.3394664-1.6293544-3.0924698-2.8929723-.7541366-1.2636179-1.1309216-2.7817498-1.1309216-4.5556422v-.5319751c0-1.7733259.376785-3.2920244 1.1309216-4.5555856.7530034-1.26361795 1.7842044-2.22796091 3.0924698-2.89297227 1.307699-.66501136 2.78141-.99760203 4.422266-.99760203 1.64029 0 3.114567.33259067 4.422833.99760203 1.307699.66501136 2.338333 1.62935432 3.09247 2.89297227.753003 1.2635612 1.130355 2.7822597 1.130355 4.5555856v.5319751c0 1.7738924-.377352 3.2920243-1.130355 4.5556422-.754137 1.2636179-1.784771 2.2279042-3.09247 2.8929723-1.308266.665068-2.782543.9975453-4.422833.9975453z"/><path d="m116.244688 23.8715111v-16.49326758h4.123105v2.16144273h.598323c.266299-.57616942.764902-1.12485903 1.496375-1.64601218.732039-.52058655 1.83973-.78144642 3.32534-.78144642 1.285601 0 2.410857.29411893 3.3752.88122362.964343.58767128 1.712814 1.39665417 2.244845 2.42745863.532032 1.0308044.797765 2.2335701.797765 3.6078438v9.8427574h-4.189963v-9.5102234c0-1.2411807-.304827-2.1723213-.914482-2.793195-.609656-.6203637-1.479377-.9310272-2.610299-.9310272-1.285602 0-2.283374.4270419-2.992749 1.2801624-.709376.8536872-1.064064 2.0450644-1.064064 3.5746415v8.3796417z"/></g><path d="m31 15.5004249c0 8.5465604-6.9530147 15.4995751-15.4995751 15.4995751-8.54741016 0-15.5004249-6.9530147-15.5004249-15.4995751 0-8.54746682 6.95301474-15.5004249 15.5004249-15.5004249 2.3621304 0 4.602443.53061527 6.6080724 1.48000015l-2.5744331 3.31644456c-1.255289-.47423916-2.614208-.73373921-4.0336393-.73373921-6.02691682 0-10.97923154 4.68448575-11.40791655 10.6044297-.00827227.119438-.01490142.2396126-.01988745.360637-.00662915.1567766-.0099154.3142897-.0099154.4726527 0 6.3063044 5.13056519 11.4368696 11.4377194 11.4368696 6.3063044 0 11.4368696-5.1305652 11.4368696-11.4368696 0-.8432051-.0920149-1.6657296-.265336-2.4567515l2.9873668-3.8479097c.8614495 1.9268728 1.3406747 4.0610624 1.3406747 6.3046612" fill="#fbde2a"/><path d="m27.8402187 6.13134014-11.7760327 15.16794756-7.47700089-6.6843925 2.70707269-3.0287848 4.2310406 3.7824681 9.4278973-12.1441488c1.0853674.83742591 2.0570761 1.81582041 2.887023 2.90691044" fill="#1e1f1d"/><path d="m133.794937 9.30769789v-1.9375h.688978l.361487 1.60588534h.086122l.362054-1.60588534h.688978v1.9375h-.362053v-1.60588534h-.085556l-.362054 1.60588534h-.568293l-.362054-1.60588534h-.086122v1.60588534zm-1.257272 0v-1.60588534h-.637418v-.33161466h1.636323v.33161466h-.637418v1.60588534z" fill="#1e1f1d"/></g></svg>